@startuml
scale 640 width

[*] --> NotShooting

state NotShooting {
    [*] --> Idle
    Idle --> Processing: SignalEvent
    Processing --> Idle: Finish
    Idle --> Configuring : EvConfig
    Configuring --> Idle : EvConfig
}

state Configuring {
    [*] --> NewValueSelection
    NewValueSelection --> NewValuePreview : EvNewValue
    NewValuePreview --> NewValueSelection : EvNewValueRejected
    NewValuePreview --> NewValueSelection : EvNewValueSaved
    state NewValuePreview {
        State1 -> State2
    }
}

@enduml